inDegrees=no
num_controls=7
num_derivatives=13
num_iterations=97
num_multipliers=7
num_parameters=0
num_slacks=7
num_states=26
objective=0.472148
objective_accelerations=0.001535
objective_balance=0.004772
objective_effort=0.008413
objective_height=0.445626
objective_ligament=0.011802
solver_duration=1436.179537
status=Solve_Succeeded
success=true
DataType=double
version=3
OpenSimVersion=4.5
endheader
time	/jointset/ground_pelvis/pelvis_tilt/value	/jointset/ground_pelvis/pelvis_tx/value	/jointset/ground_pelvis/pelvis_ty/value	/jointset/hip_l/hip_flexion_l/value	/jointset/hip_l/hip_adduction_l/value	/jointset/hip_l/hip_rotation_l/value	/jointset/back/lumbar_extension/value	/jointset/patellofemoral_l/patellar_flexion_l/value	/jointset/knee_l/knee_flexion_l/value	/jointset/knee_l/knee_adduction_l/value	/jointset/knee_l/knee_rotation_l/value	/jointset/ankle_l/ankle_angle_l/value	/jointset/subtalar_l/subtalar_angle_l/value	/jointset/ground_pelvis/pelvis_tilt/speed	/jointset/ground_pelvis/pelvis_tx/speed	/jointset/ground_pelvis/pelvis_ty/speed	/jointset/hip_l/hip_flexion_l/speed	/jointset/hip_l/hip_adduction_l/speed	/jointset/hip_l/hip_rotation_l/speed	/jointset/back/lumbar_extension/speed	/jointset/patellofemoral_l/patellar_flexion_l/speed	/jointset/knee_l/knee_flexion_l/speed	/jointset/knee_l/knee_adduction_l/speed	/jointset/knee_l/knee_rotation_l/speed	/jointset/ankle_l/ankle_angle_l/speed	/jointset/subtalar_l/subtalar_angle_l/speed	/forceset/tau_hip_flexion_l	/forceset/tau_hip_adduction_l	/forceset/tau_hip_rotation_l	/forceset/tau_knee_flexion_l	/forceset/tau_ankle_angle_l	/forceset/tau_subtalar_angle_l	/forceset/tau_lumbar_extension	lambda_cid13_p0	lambda_cid13_p1	lambda_cid13_p2	lambda_cid13_p3	lambda_cid13_p4	lambda_cid13_p5	lambda_cid14_p0	/jointset/ground_pelvis/pelvis_tilt/accel	/jointset/ground_pelvis/pelvis_tx/accel	/jointset/ground_pelvis/pelvis_ty/accel	/jointset/hip_l/hip_flexion_l/accel	/jointset/hip_l/hip_adduction_l/accel	/jointset/hip_l/hip_rotation_l/accel	/jointset/back/lumbar_extension/accel	/jointset/patellofemoral_l/patellar_flexion_l/accel	/jointset/knee_l/knee_flexion_l/accel	/jointset/knee_l/knee_adduction_l/accel	/jointset/knee_l/knee_rotation_l/accel	/jointset/ankle_l/ankle_angle_l/accel	/jointset/subtalar_l/subtalar_angle_l/accel	gamma_cid13_p0	gamma_cid13_p1	gamma_cid13_p2	gamma_cid13_p3	gamma_cid13_p4	gamma_cid13_p5	gamma_cid14_p0
0.5	-0.187665128610941	0.07761428064436771	0.8963441869726492	0.3942133831624088	-0.2617635972930455	-0.264756612971299	-0.0661699115009603	0.05170367937651583	0.05170367937650308	-0.1744769663222396	0.1742085695878861	-0.0101500361626297	-0.004428521788147874	-0.06363346900824975	0.04181141359181638	-0.005223088188594902	0.04788139672029002	-0.007580962594122537	0.02235954577340118	-0.142357710079022	0.05647934467528985	0.05647934467530445	-2.274343441867231e-05	-0.0001587482563820446	0.07678655428582758	0.01016381417867228	-0.02210115479586309	0.04372111621605024	-0.02357839144196266	-0.1172758932720352	0.09784606706255077	-0.04925508585107287	0.0529027307927395	-12.0333864701722	15.38097212958859	6.41753692906766	5.610882642221337	-629.0651295735104	-25.08230431045545	-39.59370790412559	0.07829989990817335	-0.06522085449436178	-0.0003776161520652447	-0.0108820595920651	0.003081034015105172	-0.008954169365501701	0.07898260349412263	-0.01504900371336512	-0.01504900371336535	0.0008788675763922115	0.0004083292768657224	-0.08685671574487769	-0.01748790208066043	-1.372427921865816e-11	-4.424260871025297e-10	2.726188915828579e-10	-3.899626645356188e-11	7.403539735927906e-11	-4.784100000997876e-10	-5.923896631582313e-11
0.51	-0.1882974907116269	0.07802910030042258	0.8962919445367394	0.3946915957439341	-0.261839247129045	-0.2645334969992047	-0.06758939528411882	0.05226765634507965	0.05226765634508337	-0.1744771560598331	0.1742070101520428	-0.009386584590407285	-0.004327768647817787	-0.06283350962809757	0.04114910546066347	-0.005224626689034078	0.04775543280912568	-0.007547993637766219	0.02226084869945021	-0.1415238362813182	0.05630872027249096	0.05630872027249657	-1.513126666186146e-05	-0.0001531093326034829	0.07589623573957847	0.009986091913182225	-0.02332437856059263	0.04438816382421856	-0.02331369704618122	-0.1156351924868555	0.09526987315430538	-0.04881660111005865	0.05387116680849517	-12.83370842220295	15.32811030560207	6.428886944340781	5.866853124126004	-629.0992757025616	-24.9931395147128	-39.60814850797761	0.08166017914437121	-0.06724762449174393	7.390212798802676e-05	-0.01430657317394543	0.003556468169347041	-0.01074751967409201	0.08787130823917438	-0.01916846321218556	-0.01916846321357412	0.0007132921196657937	0.000646055992100878	-0.09124808788731352	-0.01802264939717473	-3.329909661044771e-12	-4.173555300873553e-10	2.437039383690043e-10	-3.813659483370717e-11	1.144605849325809e-10	-4.401619002863186e-10	-5.247575490757812e-11
0.52	-0.1889216899740844	0.07843719450875306	0.8962397098896486	0.395168378083104	-0.2619145369471264	-0.2643114520065055	-0.06900008402123103	0.05282970720871302	0.05282970720870052	-0.1744772674956201	0.1742055079817984	-0.008632261936411973	-0.004228814382265007	-0.06200090136495919	0.04046632404693747	-0.005221530424787414	0.04759534824613999	-0.00750895901247582	0.02214534989493481	-0.1405987008704116	0.05609412368373314	0.05609412368372976	-7.083069126071861e-06	-0.0001472951262675016	0.07496077064043699	0.00980403922313435	-0.02454760232525576	0.04505521143239304	-0.02304900265067348	-0.1139944917015885	0.09269367924607949	-0.04837811636903037	0.05483960282429068	-13.63448560831556	15.27512044058031	6.440494672898947	6.127878380567361	-629.1372176659993	-24.90479527153571	-39.62249412542705	0.08482967650522089	-0.06931551100880767	0.0005493367851003942	-0.0177061899563624	0.004294167801911728	-0.0123145154784324	0.09723492613456013	-0.02384344090517474	-0.02384344090517494	0.0009660735321565309	0.0004433857883934947	-0.09588602632316068	-0.01835398699218722	-1.078389581798245e-11	-4.12835755742795e-10	2.242782654763601e-10	-2.653408293064977e-11	1.085790997941169e-10	-4.361295973539635e-10	-5.166994596708396e-11
0.53	-0.1895374023063924	0.0788383575912259	0.8961875286594931	0.3956433975876116	-0.26198940815784	-0.2640906435992653	-0.07040106830383899	0.05338940117479162	0.05338940117477941	-0.1744772978501891	0.1742040656947426	-0.007887517314413213	-0.004131703837814435	-0.06113617918955833	0.03976281149932653	-0.005213967365022949	0.04740308523764747	-0.007464497089869328	0.02201388376426823	-0.1395833676136976	0.05583749951707627	0.05583749951706878	7.245831804953891e-07	-0.0001413895690025813	0.07398056409971819	0.009617104585157315	-0.02575007636194187	0.04571210917947981	-0.02278911813451617	-0.1123853288558333	0.09016520463801656	-0.047950208032438	0.05579189539756888	-14.42026862330774	15.22413442225232	6.451741943762149	6.382555322054691	-629.1718014180128	-24.81533764349137	-39.63673437158967	0.08810137235442181	-0.07139127254211702	0.0009720478562049604	-0.02080646817730087	0.004640108830260989	-0.0139298738489838	0.1059007307129219	-0.02764739706734279	-0.02764739706800237	0.0006449517117438617	0.0006300010424705545	-0.1002264217197771	-0.01900792529514408	-1.109795015654712e-11	-3.957611775787598e-10	1.955693233117545e-10	-2.100849867321894e-11	1.174291687377445e-10	-4.193018923899509e-10	-4.718647788082337e-11
